<svg width="119" height="21" viewBox="0 0 119 21" fill="none" xmlns="http://www.w3.org/2000/svg">
<path d="M13.0932 0.180663V3.34067H3.72405V8.33015H12.622V11.6149H3.68247V20H0.0789514V0.180663H13.0932ZM19.33 10.0349C19.33 14.6455 21.3767 16.9509 25.4699 16.9509C29.4615 16.9509 31.4573 14.6455 31.4573 10.0349C31.4573 5.49816 29.4615 3.22979 25.4699 3.22979C21.3767 3.22979 19.33 5.49816 19.33 10.0349ZM15.5186 10.1181C15.5186 3.40073 18.8357 0.0420663 25.4699 0.0420663C32.0024 0.0420663 35.2687 3.40073 35.2687 10.1181C35.2687 16.7984 32.0024 20.1386 25.4699 20.1386C19.1314 20.1386 15.8143 16.7984 15.5186 10.1181ZM41.8659 10.0349C41.8659 14.6455 43.9125 16.9509 48.0057 16.9509C51.9973 16.9509 53.9931 14.6455 53.9931 10.0349C53.9931 5.49816 51.9973 3.22979 48.0057 3.22979C43.9125 3.22979 41.8659 5.49816 41.8659 10.0349ZM38.0545 10.1181C38.0545 3.40073 41.3715 0.0420663 48.0057 0.0420663C54.5382 0.0420663 57.8045 3.40073 57.8045 10.1181C57.8045 16.7984 54.5382 20.1386 48.0057 20.1386C41.6672 20.1386 38.3501 16.7984 38.0545 10.1181ZM74.2421 0.180663V3.36839H68.5596V20H64.8868V3.36839H59.2043V0.180663H74.2421ZM79.6612 16.6321C80.502 16.9001 81.4768 17.034 82.5856 17.034C84.8031 17.034 85.9119 15.4679 85.9119 12.3356C85.9119 9.77618 84.9556 8.49647 83.043 8.49647C81.8048 8.49647 80.6776 8.74594 79.6612 9.24489V16.6321ZM75.9884 0.180663H79.6612V6.55611C80.7607 5.81693 81.985 5.44734 83.334 5.44734C87.4734 5.44734 89.5432 7.77577 89.5432 12.4326C89.5432 17.4775 87.1732 20 82.4331 20C80.4374 20 78.2891 19.8013 75.9884 19.404V0.180663ZM91.6221 15.4679C91.6221 12.5758 93.7288 11.1298 97.9421 11.1298C98.9308 11.1298 99.9194 11.2222 100.908 11.407V10.3121C100.908 9.00928 99.9703 8.35787 98.0946 8.35787C96.5053 8.35787 94.7405 8.58887 92.8002 9.05086V6.14032C94.7405 5.67833 96.5053 5.44734 98.0946 5.44734C102.419 5.44734 104.581 7.04582 104.581 10.2428V20H102.447L101.144 18.6972C99.8779 19.5657 98.4826 20 96.9581 20C93.4008 20 91.6221 18.4893 91.6221 15.4679ZM100.908 13.9017C99.9841 13.7169 98.9955 13.6245 97.9421 13.6245C96.1773 13.6245 95.2949 14.2251 95.2949 15.4263C95.2949 16.7199 96.0341 17.3667 97.5125 17.3667C98.7321 17.3667 99.864 16.9878 100.908 16.2302V13.9017ZM111.732 0.180663V20H108.06V0.180663H111.732ZM118.884 0.180663V20H115.211V0.180663H118.884Z" fill="white"/>
</svg>
