<svg width="24" height="24" viewBox="0 0 24 24" fill="none" xmlns="http://www.w3.org/2000/svg">
<g clip-path="url(#clip0_1_22735)">
<path d="M23.7628 12.276C23.7628 11.4603 23.6967 10.6401 23.5556 9.83765H12.2368V14.4586H18.7185C18.4495 15.949 17.5853 17.2674 16.3198 18.1051V21.1035H20.1868C22.4576 19.0135 23.7628 15.9269 23.7628 12.276Z" fill="white"/>
<path d="M12.2373 24.0002C15.4737 24.0002 18.2031 22.9376 20.1917 21.1033L16.3247 18.1049C15.2488 18.8369 13.8599 19.2514 12.2417 19.2514C9.11105 19.2514 6.45663 17.1393 5.50421 14.2997H1.51376V17.3906C3.55088 21.4428 7.70006 24.0002 12.2373 24.0002Z" fill="white"/>
<path d="M5.49974 14.3002C4.99707 12.8099 4.99707 11.196 5.49974 9.70569V6.61475H1.5137C-0.188303 10.0055 -0.188303 14.0004 1.5137 17.3912L5.49974 14.3002Z" fill="white"/>
<path d="M12.2373 4.74954C13.9481 4.72308 15.6016 5.36684 16.8407 6.54855L20.2667 3.12249C18.0973 1.08538 15.218 -0.0345881 12.2373 0.000686596C7.7001 0.000686596 3.55092 2.5581 1.51381 6.61469L5.49985 9.70563C6.44785 6.86161 9.10668 4.74954 12.2373 4.74954Z" fill="white"/>
</g>
<defs>
<clipPath id="clip0_1_22735">
<rect width="24" height="24" fill="white"/>
</clipPath>
</defs>
</svg>
