<svg width="48" height="48" viewBox="0 0 48 48" fill="none" xmlns="http://www.w3.org/2000/svg">
<path d="M24 30.75C23.59 30.75 23.25 30.41 23.25 30V27C23.25 26.59 23.59 26.25 24 26.25C24.41 26.25 24.75 26.59 24.75 27V30C24.75 30.41 24.41 30.75 24 30.75Z" fill="white" fill-opacity="0.88"/>
<path d="M29.6 34.56H18.4C16.58 34.56 14.92 33.16 14.62 31.37L13.29 23.4C13.07 22.16 13.68 20.57 14.67 19.78L21.6 14.23C22.94 13.15 25.05 13.16 26.4 14.24L33.33 19.78C34.31 20.57 34.91 22.16 34.71 23.4L33.38 31.36C33.08 33.13 31.38 34.56 29.6 34.56ZM23.99 14.93C23.46 14.93 22.93 15.09 22.54 15.4L15.61 20.96C15.05 21.41 14.65 22.45 14.77 23.16L16.1 31.12C16.28 32.17 17.33 33.06 18.4 33.06H29.6C30.67 33.06 31.72 32.17 31.9 31.11L33.23 23.15C33.34 22.45 32.94 21.39 32.39 20.95L25.46 15.41C25.06 15.09 24.52 14.93 23.99 14.93Z" fill="white" fill-opacity="0.88"/>
</svg>
