<svg>
	<symbol id="apple" viewBox="0 0 32 32" xmlns="http://www.w3.org/2000/svg">
        <path d="M21.6841 18.7033C21.3212 19.5418 20.8916 20.3136 20.3938 21.0232C19.7153 21.9906 19.1598 22.6602 18.7316 23.032C18.068 23.6424 17.3569 23.955 16.5954 23.9728C16.0488 23.9728 15.3895 23.8172 14.6221 23.5017C13.8522 23.1876 13.1447 23.032 12.4978 23.032C11.8193 23.032 11.0916 23.1876 10.3132 23.5017C9.53371 23.8172 8.90573 23.9816 8.4256 23.9979C7.6954 24.0291 6.96757 23.7076 6.24108 23.032C5.77739 22.6276 5.19741 21.9343 4.50262 20.9521C3.75716 19.9033 3.14429 18.687 2.66416 17.3004C2.14995 15.8026 1.89218 14.3523 1.89218 12.9482C1.89218 11.3398 2.23973 9.95259 2.93585 8.79011C3.48294 7.85636 4.21077 7.11979 5.12171 6.57906C6.03264 6.03834 7.01691 5.76279 8.07687 5.74516C8.65685 5.74516 9.41742 5.92456 10.3626 6.27715C11.3051 6.63091 11.9102 6.81032 12.1756 6.81032C12.3739 6.81032 13.0462 6.60054 14.1859 6.18233C15.2636 5.79449 16.1732 5.63391 16.9184 5.69716C18.9376 5.86012 20.4545 6.6561 21.4634 8.09013C19.6575 9.18432 18.7642 10.7169 18.782 12.6829C18.7983 14.2142 19.3538 15.4886 20.4457 16.5004C20.9405 16.97 21.493 17.333 22.1078 17.5907C21.9745 17.9774 21.8338 18.3477 21.6841 18.7033ZM17.0532 0.480137C17.0532 1.68041 16.6147 2.8011 15.7406 3.8384C14.6858 5.07155 13.41 5.78412 12.0265 5.67168C12.0089 5.52769 11.9987 5.37614 11.9987 5.21688C11.9987 4.06462 12.5003 2.83147 13.3911 1.82321C13.8358 1.3127 14.4014 0.888228 15.0873 0.549615C15.7717 0.216055 16.4191 0.031589 17.028 0C17.0458 0.160458 17.0532 0.320926 17.0532 0.480121V0.480137Z" fill="currentColor"/>
	</symbol>

    <symbol id="arrow" viewBox="0 0 32 32" xmlns="http://www.w3.org/2000/svg">
	    <path d="M8.90998 20.67C8.71998 20.67 8.52998 20.6 8.37998 20.45C8.08998 20.16 8.08998 19.68 8.37998 19.39L14.9 12.87C15.38 12.39 15.38 11.61 14.9 11.13L8.37998 4.61002C8.08998 4.32002 8.08998 3.84002 8.37998 3.55002C8.66998 3.26002 9.14998 3.26002 9.43998 3.55002L15.96 10.07C16.47 10.58 16.76 11.27 16.76 12C16.76 12.73 16.48 13.42 15.96 13.93L9.43998 20.45C9.28998 20.59 9.09998 20.67 8.90998 20.67Z" fill="currentColor" fill-opacity="0.4"/>
    </symbol>

    <symbol id="fb" viewBox="0 0 32 32" xmlns="http://www.w3.org/2000/svg">
        <g clip-path="url(#clip0_1_22734)">
            <path d="M24 12C24 5.37258 18.6274 0 12 0C5.37258 0 0 5.37258 0 12C0 17.9895 4.3882 22.954 10.125 23.8542V15.4688H7.07812V12H10.125V9.35625C10.125 6.34875 11.9166 4.6875 14.6576 4.6875C15.9701 4.6875 17.3438 4.92188 17.3438 4.92188V7.875H15.8306C14.34 7.875 13.875 8.80008 13.875 9.75V12H17.2031L16.6711 15.4688H13.875V23.8542C19.6118 22.954 24 17.9895 24 12Z" fill="currentColor"/>
        </g>
        <defs>
            <clipPath id="clip0_1_22734">
                <rect width="24" height="24" fill="currentColor"/>
            </clipPath>
        </defs>
    </symbol>

    <symbol id="g" viewBox="0 0 32 32" xmlns="http://www.w3.org/2000/svg">
        <g clip-path="url(#clip0_1_22735)">
            <path d="M23.7628 12.276C23.7628 11.4603 23.6967 10.6401 23.5556 9.83765H12.2368V14.4586H18.7185C18.4495 15.949 17.5853 17.2674 16.3198 18.1051V21.1035H20.1868C22.4576 19.0135 23.7628 15.9269 23.7628 12.276Z" fill="currentColor"/>
            <path d="M12.2373 24.0002C15.4737 24.0002 18.2031 22.9376 20.1917 21.1033L16.3247 18.1049C15.2488 18.8369 13.8599 19.2514 12.2417 19.2514C9.11105 19.2514 6.45663 17.1393 5.50421 14.2997H1.51376V17.3906C3.55088 21.4428 7.70006 24.0002 12.2373 24.0002Z" fill="currentColor"/>
            <path d="M5.49974 14.3002C4.99707 12.8099 4.99707 11.196 5.49974 9.70569V6.61475H1.5137C-0.188303 10.0055 -0.188303 14.0004 1.5137 17.3912L5.49974 14.3002Z" fill="currentColor"/>
            <path d="M12.2373 4.74954C13.9481 4.72308 15.6016 5.36684 16.8407 6.54855L20.2667 3.12249C18.0973 1.08538 15.218 -0.0345881 12.2373 0.000686596C7.7001 0.000686596 3.55092 2.5581 1.51381 6.61469L5.49985 9.70563C6.44785 6.86161 9.10668 4.74954 12.2373 4.74954Z" fill="currentColor"/>
        </g>
        <defs>
            <clipPath id="clip0_1_22735">
                <rect width="24" height="24" fill="currentColor"/>
            </clipPath>
        </defs>
    </symbol>

    <symbol id="home" viewBox="0 0 32 32" xmlns="http://www.w3.org/2000/svg">
        <path d="M12 18.75C11.59 18.75 11.25 18.41 11.25 18V15C11.25 14.59 11.59 14.25 12 14.25C12.41 14.25 12.75 14.59 12.75 15V18C12.75 18.41 12.41 18.75 12 18.75Z" fill="currentColor" fill-opacity="0.88"/>
        <path d="M17.6 22.56H6.40002C4.58002 22.56 2.92002 21.16 2.62002 19.37L1.29002 11.4C1.07002 10.16 1.68002 8.57001 2.67002 7.78001L9.60002 2.23001C10.94 1.15001 13.05 1.16001 14.4 2.24001L21.33 7.78001C22.31 8.57001 22.91 10.16 22.71 11.4L21.38 19.36C21.08 21.13 19.38 22.56 17.6 22.56ZM11.99 2.93001C11.46 2.93001 10.93 3.09001 10.54 3.40001L3.61002 8.96001C3.05002 9.41001 2.65002 10.45 2.77002 11.16L4.10002 19.12C4.28002 20.17 5.33002 21.06 6.40002 21.06H17.6C18.67 21.06 19.72 20.17 19.9 19.11L21.23 11.15C21.34 10.45 20.94 9.39001 20.39 8.95001L13.46 3.41001C13.06 3.09001 12.52 2.93001 11.99 2.93001Z" fill="currentColor" fill-opacity="0.88"/>
    </symbol>

    <symbol id="ig" viewBox="0 0 32 32" xmlns="http://www.w3.org/2000/svg">
        <g clip-path="url(#clip0_1_22737)">
            <path d="M16.8503 0H7.14973C3.20735 0 0 3.20735 0 7.14973V16.8503C0 20.7926 3.20735 24 7.14973 24H16.8503C20.7926 24 24 20.7926 24 16.8503V7.14973C24 3.20735 20.7926 0 16.8503 0ZM21.5856 16.8503C21.5856 19.4655 19.4655 21.5856 16.8503 21.5856H7.14973C4.5345 21.5856 2.4144 19.4655 2.4144 16.8503V7.14973C2.4144 4.53446 4.5345 2.4144 7.14973 2.4144H16.8503C19.4655 2.4144 21.5856 4.53446 21.5856 7.14973V16.8503Z" fill="currentColor"/>
            <path d="M12 5.79272C8.57729 5.79272 5.79272 8.57729 5.79272 11.9999C5.79272 15.4226 8.57729 18.2072 12 18.2072C15.4227 18.2072 18.2072 15.4226 18.2072 11.9999C18.2072 8.57725 15.4227 5.79272 12 5.79272ZM12 15.7928C9.90523 15.7928 8.20712 14.0947 8.20712 12C8.20712 9.90523 9.90527 8.20712 12 8.20712C14.0947 8.20712 15.7928 9.90523 15.7928 12C15.7928 14.0947 14.0947 15.7928 12 15.7928Z" fill="currentColor"/>
            <path d="M18.219 7.32673C19.0405 7.32673 19.7064 6.66083 19.7064 5.83939C19.7064 5.01796 19.0405 4.35205 18.219 4.35205C17.3976 4.35205 16.7317 5.01796 16.7317 5.83939C16.7317 6.66083 17.3976 7.32673 18.219 7.32673Z" fill="currentColor"/>
        </g>
        <defs>
            <clipPath id="clip0_1_22737">
                <rect width="24" height="24" fill="currentColor"/>
            </clipPath>
        </defs>
    </symbol>

    <symbol id="profile" viewBox="0 0 32 32" xmlns="http://www.w3.org/2000/svg">
        <circle cx="17" cy="19" r="15" fill="#0D99E7"/>
        <circle cx="28" cy="6" r="5.5" fill="#FF385C" stroke="white"/>
        <mask id="mask0_402_360" style="mask-type:alpha" maskUnits="userSpaceOnUse" x="4" y="6" width="26" height="26">
            <circle cx="17" cy="19" r="12.1875" fill="#737373"/>
        </mask>
        <g mask="url(#mask0_402_360)">
            <circle cx="17" cy="17.125" r="6.5625" fill="white"/>
            <circle cx="17" cy="33.0625" r="11.25" fill="white"/>
        </g>
    </symbol>

    <symbol id="star" viewBox="0 0 32 32" xmlns="http://www.w3.org/2000/svg">
        <path d="M11.4417 2.9248L12.9083 5.85813C13.1083 6.26647 13.6417 6.65813 14.0917 6.73313L16.75 7.1748C18.45 7.45813 18.85 8.69147 17.625 9.90813L15.5583 11.9748C15.2083 12.3248 15.0167 12.9998 15.125 13.4831L15.7167 16.0415C16.1833 18.0665 15.1083 18.8498 13.3167 17.7915L10.825 16.3165C10.375 16.0498 9.63333 16.0498 9.175 16.3165L6.68333 17.7915C4.9 18.8498 3.81667 18.0581 4.28333 16.0415L4.875 13.4831C4.98333 12.9998 4.79167 12.3248 4.44167 11.9748L2.375 9.90813C1.15833 8.69147 1.55 7.45813 3.25 7.1748L5.90833 6.73313C6.35 6.65813 6.88333 6.26647 7.08333 5.85813L8.55 2.9248C9.35 1.33313 10.65 1.33313 11.4417 2.9248Z" fill="currentColor" stroke-width="1.875" stroke-linecap="round" stroke-linejoin="round"/>
    </symbol>
</svg>