<svg width="123" height="38" viewBox="0 0 123 38" fill="none" xmlns="http://www.w3.org/2000/svg">
<path d="M15.0932 9.18066V12.3407H5.72405V17.3302H14.622V20.6149H5.68247V29H2.07895V9.18066H15.0932ZM21.33 19.0349C21.33 23.6455 23.3767 25.9509 27.4699 25.9509C31.4615 25.9509 33.4573 23.6455 33.4573 19.0349C33.4573 14.4982 31.4615 12.2298 27.4699 12.2298C23.3767 12.2298 21.33 14.4982 21.33 19.0349ZM17.5186 19.1181C17.5186 12.4007 20.8357 9.04207 27.4699 9.04207C34.0024 9.04207 37.2687 12.4007 37.2687 19.1181C37.2687 25.7984 34.0024 29.1386 27.4699 29.1386C21.1314 29.1386 17.8143 25.7984 17.5186 19.1181ZM43.8659 19.0349C43.8659 23.6455 45.9125 25.9509 50.0057 25.9509C53.9973 25.9509 55.9931 23.6455 55.9931 19.0349C55.9931 14.4982 53.9973 12.2298 50.0057 12.2298C45.9125 12.2298 43.8659 14.4982 43.8659 19.0349ZM40.0545 19.1181C40.0545 12.4007 43.3715 9.04207 50.0057 9.04207C56.5382 9.04207 59.8045 12.4007 59.8045 19.1181C59.8045 25.7984 56.5382 29.1386 50.0057 29.1386C43.6672 29.1386 40.3501 25.7984 40.0545 19.1181ZM76.2421 9.18066V12.3684H70.5596V29H66.8868V12.3684H61.2043V9.18066H76.2421Z" fill="#0D99E7"/>
<path d="M81.6612 25.6321C82.502 25.9001 83.4768 26.034 84.5856 26.034C86.8031 26.034 87.9119 24.4679 87.9119 21.3356C87.9119 18.7762 86.9556 17.4965 85.043 17.4965C83.8048 17.4965 82.6776 17.7459 81.6612 18.2449V25.6321ZM77.9884 9.18066H81.6612V15.5561C82.7607 14.8169 83.985 14.4473 85.334 14.4473C89.4734 14.4473 91.5432 16.7758 91.5432 21.4326C91.5432 26.4775 89.1732 29 84.4331 29C82.4374 29 80.2891 28.8013 77.9884 28.404V9.18066ZM93.6221 24.4679C93.6221 21.5758 95.7288 20.1298 99.9421 20.1298C100.931 20.1298 101.919 20.2222 102.908 20.407V19.3121C102.908 18.0093 101.97 17.3579 100.095 17.3579C98.5053 17.3579 96.7405 17.5889 94.8002 18.0509V15.1403C96.7405 14.6783 98.5053 14.4473 100.095 14.4473C104.419 14.4473 106.581 16.0458 106.581 19.2428V29H104.447L103.144 27.6972C101.878 28.5657 100.483 29 98.9581 29C95.4008 29 93.6221 27.4893 93.6221 24.4679ZM102.908 22.9017C101.984 22.7169 100.995 22.6245 99.9421 22.6245C98.1773 22.6245 97.2949 23.2251 97.2949 24.4263C97.2949 25.7199 98.0341 26.3667 99.5125 26.3667C100.732 26.3667 101.864 25.9878 102.908 25.2302V22.9017ZM113.732 9.18066V29H110.06V9.18066H113.732ZM120.884 9.18066V29H117.211V9.18066H120.884Z" fill="white"/>
</svg>
