<svg width="20" height="20" viewBox="0 0 20 20" fill="none" xmlns="http://www.w3.org/2000/svg">
<path d="M11.4417 2.9248L12.9083 5.85813C13.1083 6.26647 13.6417 6.65813 14.0917 6.73313L16.75 7.1748C18.45 7.45813 18.85 8.69147 17.625 9.90813L15.5583 11.9748C15.2083 12.3248 15.0167 12.9998 15.125 13.4831L15.7167 16.0415C16.1833 18.0665 15.1083 18.8498 13.3167 17.7915L10.825 16.3165C10.375 16.0498 9.63333 16.0498 9.175 16.3165L6.68333 17.7915C4.9 18.8498 3.81667 18.0581 4.28333 16.0415L4.875 13.4831C4.98333 12.9998 4.79167 12.3248 4.44167 11.9748L2.375 9.90813C1.15833 8.69147 1.55 7.45813 3.25 7.1748L5.90833 6.73313C6.35 6.65813 6.88333 6.26647 7.08333 5.85813L8.55 2.9248C9.35 1.33313 10.65 1.33313 11.4417 2.9248Z" fill="currentColor" stroke-width="1.875" stroke-linecap="round" stroke-linejoin="round"/>
</svg>
